<?xml version="1.0" standalone="no"?>
<!DOCTYPE svg PUBLIC "-//W3C//DTD SVG 20010904//EN"
 "http://www.w3.org/TR/2001/REC-SVG-20010904/DTD/svg10.dtd">
<svg version="1.0" xmlns="http://www.w3.org/2000/svg"
 width="512.000000pt" height="512.000000pt" viewBox="0 0 512.000000 512.000000"
 preserveAspectRatio="xMidYMid meet">
<metadata>
Created by potrace 1.14, written by Peter Selinger 2001-2017
</metadata>
<g transform="translate(0.000000,512.000000) scale(0.100000,-0.100000)"
fill="#000000" stroke="none">
<path d="M2375 5095 c-139 -26 -247 -65 -372 -136 -101 -58 -155 -108 -149
-140 3 -13 5 -29 5 -34 1 -13 37 -35 63 -40 12 -3 49 14 90 40 191 124 354
173 563 169 171 -3 304 -38 452 -119 251 -138 431 -388 485 -674 7 -36 12
-334 13 -829 l2 -772 23 -25 c28 -30 69 -32 101 -6 l24 19 -1 799 c0 787 0
799 -22 890 -100 422 -409 731 -837 840 -120 30 -327 39 -440 18z"/>
<path d="M1682 4668 c-24 -12 -95 -120 -131 -198 -54 -119 -86 -226 -99 -335
-9 -70 -8 -1646 1 -1721 4 -34 9 -68 12 -75 2 -8 6 -25 9 -39 9 -54 59 -189
98 -262 128 -240 321 -412 588 -523 l75 -31 1 -426 0 -426 -115 -4 c-136 -5
-194 -25 -252 -88 -71 -76 -87 -142 -84 -335 1 -98 5 -125 20 -148 38 -59 13
-57 755 -57 742 0 716 -2 756 57 27 41 28 315 0 383 -26 67 -79 125 -139 154
-60 29 -89 34 -207 35 l-86 1 0 430 0 430 50 16 c242 79 498 303 618 539 39
77 88 211 88 242 0 31 -42 73 -72 73 -41 0 -65 -27 -89 -97 -49 -150 -122
-268 -238 -383 -200 -200 -431 -292 -710 -285 -256 6 -469 100 -657 289 -135
136 -222 297 -260 481 -17 83 -18 150 -18 890 0 440 2 827 6 860 15 130 79
299 157 415 39 57 41 101 5 129 -29 23 -48 25 -82 9z m1048 -3273 c1 -67 1
-737 0 -752 0 -10 -41 -13 -170 -13 l-170 0 0 408 0 407 170 0 170 0 0 -50z
m383 -935 c54 -27 70 -70 72 -197 l2 -113 -627 0 -626 0 2 98 c1 53 2 107 3
119 1 29 66 101 94 105 12 2 254 3 537 3 417 -1 520 -3 543 -15z"/>
<path d="M665 4558 c-41 -23 -162 -128 -230 -199 -213 -222 -346 -482 -411
-804 -19 -92 -27 -371 -13 -455 5 -30 11 -73 14 -95 10 -69 53 -219 91 -311
99 -247 276 -482 487 -645 69 -54 96 -69 122 -69 44 0 79 41 71 83 -7 33 -13
40 -91 97 -71 52 -194 173 -255 250 -217 278 -323 648 -289 1005 10 111 16
142 50 264 72 255 230 501 430 667 134 112 148 126 142 156 -11 57 -68 84
-118 56z"/>
<path d="M4341 4544 c-39 -50 -25 -81 68 -150 267 -199 474 -529 530 -849 6
-33 14 -71 17 -85 3 -14 7 -88 8 -164 2 -125 -2 -169 -30 -336 -11 -66 -73
-241 -115 -323 -22 -45 -66 -120 -97 -167 -55 -82 -221 -260 -291 -310 -93
-68 -115 -116 -71 -160 37 -37 70 -30 155 35 301 230 512 579 581 960 27 153
25 436 -5 575 -42 199 -119 391 -216 542 -26 40 -50 75 -54 78 -3 3 -25 30
-49 62 -57 74 -200 212 -283 271 -79 56 -117 61 -148 21z"/>
<path d="M883 4215 c-46 -20 -219 -197 -274 -280 -315 -475 -257 -1081 140
-1475 143 -143 207 -165 247 -89 20 39 7 66 -62 124 -305 258 -435 624 -354
997 51 234 158 406 363 584 37 32 47 47 47 71 0 60 -51 92 -107 68z"/>
<path d="M4147 4208 c-22 -18 -36 -59 -27 -83 4 -11 34 -43 66 -70 245 -205
375 -475 376 -780 0 -132 -28 -300 -63 -365 -4 -8 -19 -41 -33 -74 -52 -119
-140 -228 -300 -374 -55 -51 -44 -122 21 -135 35 -6 53 3 128 67 198 170 330
401 381 668 19 100 21 295 4 398 -46 273 -197 534 -408 702 -75 60 -111 71
-145 46z"/>
<path d="M2071 4060 c-41 -10 -78 -45 -89 -85 -5 -17 -8 -278 -7 -581 0 -605
-2 -579 61 -621 42 -27 82 -24 144 9 55 31 150 84 182 103 9 6 47 28 85 49 37
21 120 69 183 106 63 37 133 78 155 90 123 69 302 175 318 189 27 23 47 78 41
110 -3 15 -16 40 -27 54 -19 22 -155 107 -338 209 -24 14 -156 90 -294 170
-224 130 -369 210 -377 207 -2 -1 -18 -5 -37 -9z m384 -355 c132 -76 284 -164
338 -197 55 -32 102 -58 105 -58 4 0 20 -10 35 -23 l29 -22 -44 -24 c-24 -14
-209 -120 -411 -238 -203 -117 -372 -213 -375 -213 -5 0 -8 855 -3 943 1 22
-35 40 326 -168z"/>
<path d="M1064 3808 c-50 -46 -120 -139 -152 -203 -114 -228 -96 -510 47 -730
41 -63 140 -163 168 -170 38 -9 80 12 92 47 14 38 4 56 -69 130 -158 159 -205
405 -118 617 31 74 78 145 128 192 60 57 71 99 34 140 -30 33 -78 25 -130 -23z"/>
<path d="M3940 3837 c-30 -15 -50 -51 -43 -78 3 -11 24 -39 47 -62 91 -90 143
-178 171 -288 16 -59 22 -186 11 -234 -26 -121 -76 -221 -158 -309 -65 -72
-75 -98 -52 -134 39 -60 91 -45 179 50 225 243 251 620 62 898 -61 88 -150
170 -184 170 -4 0 -19 -6 -33 -13z"/>
</g>
</svg>
